<?xml version="1.0" encoding="UTF-8" standalone="no"?>
<!DOCTYPE svg PUBLIC "-//W3C//DTD SVG 1.1//EN" "http://www.w3.org/Graphics/SVG/1.1/DTD/svg11.dtd">
<svg width="100%" height="100%" viewBox="0 0 1003 569" version="1.1" xmlns="http://www.w3.org/2000/svg" xmlns:xlink="http://www.w3.org/1999/xlink" xml:space="preserve" xmlns:serif="http://www.serif.com/" style="fill-rule:evenodd;clip-rule:evenodd;stroke-linecap:round;stroke-linejoin:round;stroke-miterlimit:1.5;">
    <g transform="matrix(1,0,0,1,-475.583333,-358.049751)">
        <g>
            <path d="M486,553.006C625.105,449.374 620.634,430.634 792.281,414.65C826.266,411.485 817.559,439.621 904.397,555.77" style="fill:none;stroke:rgb(255,123,128);stroke-width:20.83px;"/>
            <path d="M763.96,528.741C768.773,531.51 809.341,560.853 845.086,580.202C873.708,595.694 906.938,606.292 910.94,573.985C911.748,567.463 902.515,550.481 893.525,539.955" style="fill:none;stroke:rgb(255,123,128);stroke-width:20.83px;"/>
            <path d="M763.639,528.469C742.937,530.734 724.236,535.999 703.534,538.263" style="fill:none;stroke:rgb(255,123,128);stroke-width:20.83px;"/>
            <path d="M488.148,916.457C719.544,851.255 762.855,896.737 1094.18,637.84" style="fill:none;stroke:rgb(255,123,128);stroke-width:20.83px;"/>
            <path d="M740.165,419.003C748.879,412.24 831.122,355.088 862.88,371.373C910.173,395.625 903.098,398.244 886.988,448.523" style="fill:none;stroke:rgb(255,123,128);stroke-width:20.83px;"/>
            <path d="M797.801,558.168C718.654,591.304 660.423,616.765 675.371,648.187C705.546,711.623 723.28,675.988 789.999,651.427" style="fill:none;stroke:rgb(255,123,128);stroke-width:20.83px;"/>
            <path d="M791.915,650.568C823.693,635.092 847.472,628.616 875.251,618.14" style="fill:none;stroke:rgb(255,123,128);stroke-width:20.83px;"/>
            <path d="M838.212,452.163C840.132,452.259 890.624,444.318 904.397,474.227C918.151,504.094 906.481,522.295 904.255,525.766" style="fill:none;stroke:rgb(255,123,128);stroke-width:20.83px;"/>
            <path d="M895.057,528.312C896.139,528.26 940.21,515.007 951.66,564.328C959.638,598.69 935.188,635.799 931.696,641.098" style="fill:none;stroke:rgb(255,123,128);stroke-width:20.83px;"/>
            <path d="M931.179,642.874C982.137,627.626 990.434,623.767 1025.036,598.948" style="fill:none;stroke:rgb(255,123,128);stroke-width:20.83px;"/>
            <path d="M1070.268,540.129C1072.37,535.116 1097.681,474.733 1124.268,498.871C1142.87,515.76 1127.063,551.571 1124.351,561.269" style="fill:none;stroke:rgb(255,123,128);stroke-width:20.83px;"/>
            <path d="M1066.589,543.701C1029.591,534.225 1011.749,531.344 1016.798,569.538C1022.256,610.814 1079.446,596.318 1171.767,687.832C1278.349,793.482 1300.871,797.363 1376.248,830.999" style="fill:none;stroke:rgb(255,123,128);stroke-width:20.83px;"/>
            <path d="M1066.606,542.493C1103.672,557.058 1105.844,559.662 1149.737,580.913" style="fill:none;stroke:rgb(255,123,128);stroke-width:20.83px;"/>
            <path d="M1134.473,533.938C1167.775,532.741 1167.447,532.865 1199.385,540.657" style="fill:none;stroke:rgb(255,123,128);stroke-width:20.83px;"/>
            <path d="M1156.082,531.984C1206.335,497.104 1212.125,490.586 1245.411,488.913" style="fill:none;stroke:rgb(255,123,128);stroke-width:20.83px;"/>
            <path d="M1190.441,508.631C1234.862,470.348 1295.375,415.482 1343.356,468.081C1396.438,526.272 1376.925,542.941 1467.275,618.181" style="fill:none;stroke:rgb(255,123,128);stroke-width:20.83px;"/>
        </g>
    </g>
</svg>
